<svg width="1879" height="992" viewBox="0 0 1879 992" fill="none" xmlns="http://www.w3.org/2000/svg">
<g filter="url(#filter0_d_53_364)">
<mask id="path-1-inside-1_53_364" fill="white">
<path d="M360.602 88.5C374.852 88.5 388.425 82.4201 397.911 71.7875L442.589 21.7125C452.075 11.0799 465.648 5 479.898 5L1371.5 5H1388.69C1402.6 5 1415.88 10.7924 1425.34 20.9859L1473.16 72.5142C1482.62 82.7076 1495.9 88.5 1509.81 88.5H1852C1863.05 88.5 1872 97.4543 1872 108.5V788.354C1872 801.28 1866.99 813.703 1858.03 823.018L1834 848L1801.92 884.174C1792.43 894.875 1778.81 901 1764.51 901H1425.04C1411 901 1397.6 906.903 1388.13 917.265L1343.37 966.235C1333.9 976.597 1320.5 982.5 1306.46 982.5H57C29.3857 982.5 7 960.114 7 932.5V138.5C7 110.886 29.3858 88.5 57 88.5H360.602Z"/>
</mask>
<path d="M1834 848L1832.56 846.613L1832.53 846.643L1832.5 846.673L1834 848ZM1473.16 72.5142L1471.7 73.8747L1473.16 72.5142ZM1388.13 917.265L1389.61 918.614L1388.13 917.265ZM1343.37 966.235L1341.89 964.886L1343.37 966.235ZM442.589 21.7125L444.081 23.044L442.589 21.7125ZM1858.03 823.018L1856.59 821.632L1858.03 823.018ZM1801.92 884.174L1803.42 885.501L1801.92 884.174ZM397.911 71.7875L396.419 70.456L397.911 71.7875ZM9 932.5V138.5H5V932.5H9ZM57 90.5H360.602V86.5H57V90.5ZM399.404 73.119L444.081 23.044L441.096 20.381L396.419 70.456L399.404 73.119ZM479.898 7H1371.5V3H479.898V7ZM1306.46 980.5H57V984.5H1306.46V980.5ZM1386.66 915.916L1341.89 964.886L1344.84 967.584L1389.61 918.614L1386.66 915.916ZM1371.5 7H1388.69V3H1371.5V7ZM1423.87 22.3464L1471.7 73.8747L1474.63 71.1536L1426.8 19.6253L1423.87 22.3464ZM1509.81 90.5H1852V86.5H1509.81V90.5ZM1832.5 846.673L1800.42 882.847L1803.42 885.501L1835.5 849.327L1832.5 846.673ZM1764.51 899H1425.04V903H1764.51V899ZM1870 108.5V788.354H1874V108.5H1870ZM1856.59 821.632L1832.56 846.613L1835.44 849.387L1859.47 824.405L1856.59 821.632ZM1471.7 73.8747C1481.54 84.4759 1495.35 90.5 1509.81 90.5V86.5C1496.46 86.5 1483.71 80.9393 1474.63 71.1536L1471.7 73.8747ZM1388.69 7C1402.04 7 1414.79 12.5607 1423.87 22.3464L1426.8 19.6253C1416.96 9.02411 1403.15 3 1388.69 3V7ZM1389.61 918.614C1398.7 908.667 1411.56 903 1425.04 903V899C1410.44 899 1396.51 905.139 1386.66 915.916L1389.61 918.614ZM1306.46 984.5C1321.06 984.5 1334.99 978.361 1344.84 967.584L1341.89 964.886C1332.8 974.833 1319.94 980.5 1306.46 980.5V984.5ZM9 138.5C9 111.99 30.4903 90.5 57 90.5V86.5C28.2812 86.5 5 109.781 5 138.5H9ZM5 932.5C5 961.219 28.2812 984.5 57 984.5V980.5C30.4903 980.5 9 959.01 9 932.5H5ZM444.081 23.044C453.188 12.8367 466.218 7 479.898 7V3C465.078 3 450.963 9.32305 441.096 20.381L444.081 23.044ZM1870 788.354C1870 800.763 1865.19 812.689 1856.59 821.632L1859.47 824.405C1868.79 814.717 1874 801.797 1874 788.354H1870ZM1852 90.5C1861.94 90.5 1870 98.5589 1870 108.5H1874C1874 96.3497 1864.15 86.5 1852 86.5V90.5ZM1800.42 882.847C1791.31 893.12 1778.24 899 1764.51 899V903C1779.39 903 1793.55 896.63 1803.42 885.501L1800.42 882.847ZM360.602 90.5C375.422 90.5 389.537 84.1769 399.404 73.119L396.419 70.456C387.312 80.6633 374.282 86.5 360.602 86.5V90.5Z" fill="#FF1A1A" mask="url(#path-1-inside-1_53_364)"/>
</g>
<defs>
<filter id="filter0_d_53_364" x="0" y="0" width="1879" height="991.5" filterUnits="userSpaceOnUse" color-interpolation-filters="sRGB">
<feFlood flood-opacity="0" result="BackgroundImageFix"/>
<feColorMatrix in="SourceAlpha" type="matrix" values="0 0 0 0 0 0 0 0 0 0 0 0 0 0 0 0 0 0 127 0" result="hardAlpha"/>
<feOffset dy="2"/>
<feGaussianBlur stdDeviation="3.5"/>
<feComposite in2="hardAlpha" operator="out"/>
<feColorMatrix type="matrix" values="0 0 0 0 1 0 0 0 0 0.101961 0 0 0 0 0.101961 0 0 0 1 0"/>
<feBlend mode="normal" in2="BackgroundImageFix" result="effect1_dropShadow_53_364"/>
<feBlend mode="normal" in="SourceGraphic" in2="effect1_dropShadow_53_364" result="shape"/>
</filter>
</defs>
</svg>
