<svg width="190" height="53" viewBox="0 0 190 53" fill="none" xmlns="http://www.w3.org/2000/svg">
<path d="M50.941 39.785C51.1817 39.785 51.416 39.8357 51.644 39.937C51.8847 40.0257 52.0937 40.1587 52.271 40.336C52.4483 40.5007 52.5877 40.7097 52.689 40.963C52.803 41.2163 52.86 41.495 52.86 41.799V43.376C52.86 43.9207 52.7207 44.3577 52.442 44.687C52.176 45.0163 51.8403 45.2317 51.435 45.333L52.879 49H50.808L49.193 45.39H37.983V49H35.95V39.785H50.941ZM37.983 41.799V43.376H50.105C50.295 43.376 50.4597 43.338 50.599 43.262C50.751 43.1733 50.827 43.0023 50.827 42.749V42.54C50.827 42.274 50.7573 42.084 50.618 41.97C50.4913 41.856 50.314 41.799 50.086 41.799H37.983ZM56.7975 46.986H71.6745V49H54.7645V39.785H71.6745V41.799H56.7975V43.376H71.6745V45.39H56.7975V46.986ZM88.5699 39.785C88.8106 39.785 89.0449 39.8357 89.2729 39.937C89.5136 40.0257 89.7226 40.1587 89.8999 40.336C90.0772 40.5007 90.2166 40.7097 90.3179 40.963C90.4319 41.2163 90.4889 41.495 90.4889 41.799V46.986C90.4889 47.3153 90.4319 47.6067 90.3179 47.86C90.2166 48.1007 90.0772 48.3097 89.8999 48.487C89.7226 48.6517 89.5136 48.7783 89.2729 48.867C89.0449 48.9557 88.8106 49 88.5699 49H73.5789V39.785H88.5699ZM87.7339 46.986C87.9239 46.986 88.0886 46.91 88.2279 46.758C88.3799 46.5933 88.4559 46.3843 88.4559 46.131V42.654C88.4559 42.4007 88.3926 42.198 88.2659 42.046C88.1519 41.8813 87.9809 41.799 87.7529 41.799H75.6119V46.986H87.7339ZM94.4264 46.986H109.303V49H92.3934V39.785H94.4264V46.986ZM113.26 49H111.208V39.785H113.26V49ZM129.315 41.799H117.193V49H115.16V39.785H130.151C130.392 39.785 130.626 39.8293 130.854 39.918C131.095 40.0067 131.304 40.1397 131.481 40.317C131.658 40.4817 131.798 40.6907 131.899 40.944C132.013 41.1973 132.07 41.4823 132.07 41.799V49H130.037V42.654C130.037 42.4007 129.961 42.198 129.809 42.046C129.67 41.8813 129.505 41.799 129.315 41.799ZM136.007 46.986H150.884V49H133.974V39.785H150.884V41.799H136.007V43.376H150.884V45.39H136.007V46.986Z" fill="#FF1A1A"/>
<path d="M86.7373 29.7809C88.4593 29.7809 90.1812 29.7809 91.9031 29.7809C92.5523 29.7809 92.6948 29.4961 92.6948 28.9107C92.6948 28.4044 92.3306 28.2502 91.9624 28.0801L86.1317 25.3786C82.0202 23.4537 77.9074 21.5353 73.7933 19.6236C72.5385 19.0382 72.0239 18.2234 72.1308 17.0091C72.2298 15.8661 72.97 15.2728 73.9319 14.8258C79.9381 12.0255 85.9443 9.21322 91.9506 6.38913C92.5047 6.13203 92.7937 5.79978 92.671 5.20253C92.5483 4.60528 92.0456 4.6923 91.6497 4.6923C88.3563 4.6923 85.0669 4.6923 81.7735 4.6923C81.3233 4.68207 80.8767 4.77403 80.4672 4.96126C73.1204 8.3892 65.771 11.8026 58.4189 15.2016C58.0864 15.3598 57.6509 15.4784 57.7737 15.9926C57.8964 16.5068 58.3278 16.3288 58.6564 16.3288C61.7479 16.3288 64.8394 16.3526 67.9349 16.3288C68.6237 16.3288 68.8295 16.5662 68.8453 17.2386C68.8612 17.911 68.5959 18.1997 67.8953 18.1957C64.7761 18.176 61.6569 18.1957 58.5416 18.1957C58.2526 18.1957 57.8884 18.1285 57.7895 18.5161C57.6905 18.9037 58.023 19.0699 58.316 19.2162L58.9216 19.505C65.9808 22.78 73.0373 26.0563 80.0912 29.3339C80.7864 29.6695 81.552 29.8336 82.3237 29.8125C83.7923 29.7571 85.2648 29.7848 86.7373 29.7809Z" fill="#FF1A1A"/>
<path d="M100.509 4.69231C98.7907 4.69231 97.0688 4.71208 95.3627 4.69231C94.7136 4.69231 94.5473 4.97709 94.5711 5.55852C94.5711 6.06876 94.9352 6.21906 95.3034 6.38914L101.134 9.10644L113.472 14.8614C114.727 15.4468 115.238 16.2616 115.135 17.4759C115.036 18.619 114.292 19.2083 113.334 19.6592C107.314 22.4701 101.303 25.2824 95.2994 28.0959C94.7452 28.357 94.4563 28.6892 94.579 29.3062C94.7017 29.9233 95.2044 29.7809 95.5963 29.7809C98.8897 29.7809 102.183 29.7809 105.492 29.7809C105.942 29.7921 106.389 29.7015 106.799 29.5159L128.843 19.2716C129.179 19.1173 129.615 18.9987 129.492 18.5043C129.369 18.0099 128.934 18.1681 128.609 18.1681C125.518 18.1681 122.422 18.1443 119.331 18.1681C118.642 18.1681 118.432 17.9268 118.42 17.2583C118.409 16.5899 118.67 16.2932 119.37 16.3012C122.49 16.3209 125.605 16.3012 128.724 16.3012C129.013 16.3012 129.377 16.3684 129.476 15.9808C129.575 15.5932 129.243 15.427 128.95 15.2807L128.34 14.9919C121.276 11.7249 114.215 8.45249 107.159 5.17486C106.464 4.83808 105.698 4.67261 104.926 4.69231C103.454 4.73186 101.981 4.69231 100.509 4.69231Z" fill="#FF1A1A"/>
</svg>
