<svg width="34" height="34" viewBox="0 0 34 34" fill="none" xmlns="http://www.w3.org/2000/svg">
<g clip-path="url(#clip0_46_232)">
<path d="M17.445 24.8384C22.0177 24.8384 25.7378 21.1176 25.7378 16.5448C25.7378 11.9721 22.0177 8.2513 17.445 8.2513C12.873 8.2513 9.15219 11.9714 9.15219 16.5448C9.15219 21.1183 12.873 24.8384 17.445 24.8384Z" fill="white"/>
<path d="M17.4454 27.2761C18.3391 27.2761 19.0635 28.0005 19.0635 28.8935L19.0635 31.4823C19.0635 32.376 18.3391 33.1003 17.4454 33.1003C16.5517 33.1003 15.8273 32.376 15.8273 31.4823L15.8273 28.8935C15.8273 28.0005 16.5524 27.2761 17.4454 27.2761Z" fill="white"/>
<path d="M17.4454 5.81567C18.3391 5.81567 19.0635 5.09131 19.0635 4.19758L19.0635 1.60952C19.0635 0.715061 18.3391 -0.00930411 17.4454 -0.00930419C16.5517 -0.00930427 15.8273 0.71506 15.8273 1.60952L15.8273 4.19758C15.8273 5.09131 16.5524 5.81567 17.4454 5.81567Z" fill="white"/>
<path d="M9.85859 24.133C10.4898 24.765 10.4898 25.7892 9.85859 26.4212L8.02789 28.2519C7.39663 28.8832 6.37167 28.8832 5.73968 28.2519C5.1077 27.6199 5.1077 26.595 5.73968 25.9637L7.57039 24.133C8.20165 23.501 9.22587 23.501 9.85859 24.133Z" fill="white"/>
<path d="M25.0329 8.95734C25.6649 9.59006 26.6891 9.59006 27.3211 8.95734L29.1518 7.12737C29.783 6.49612 29.7838 5.47042 29.1518 4.83917C28.5198 4.20792 27.4948 4.20792 26.8636 4.83917L25.0329 6.67061C24.4009 7.30186 24.4009 8.32682 25.0329 8.95734Z" fill="white"/>
<path d="M6.71533 16.5455C6.71533 17.4392 5.99097 18.1636 5.09724 18.1636L2.50844 18.1636C1.61472 18.1636 0.890354 17.4392 0.890354 16.5455C0.890354 15.6518 1.61472 14.9281 2.50845 14.9281L5.09724 14.9281C5.99097 14.9281 6.71533 15.6518 6.71533 16.5455Z" fill="white"/>
<path d="M28.1758 16.5455C28.1758 17.4392 28.9001 18.1636 29.7938 18.1636L32.3819 18.1636C33.2756 18.1636 34 17.4392 34 16.5455C34 15.6518 33.2756 14.9281 32.3819 14.9281L29.7931 14.9281C28.9001 14.9281 28.1758 15.6518 28.1758 16.5455Z" fill="white"/>
<path d="M9.85853 8.95722C9.22654 9.58848 8.20158 9.58848 7.57033 8.95722L5.73962 7.12652C5.10764 6.496 5.10764 5.4703 5.73962 4.83905C6.37161 4.2078 7.39584 4.2078 8.02782 4.83905L9.85853 6.66976C10.4905 7.30174 10.4905 8.32597 9.85853 8.95722Z" fill="white"/>
<path d="M25.0326 24.1329C24.4006 24.7649 24.4006 25.7891 25.0326 26.4211L26.8633 28.2511C27.4953 28.8831 28.5195 28.8831 29.1515 28.2511C29.7835 27.6199 29.7835 26.5949 29.1515 25.9636L27.3208 24.1329C26.6888 23.5002 25.6646 23.5002 25.0326 24.1329Z" fill="white"/>
</g>
<defs>
<clipPath id="clip0_46_232">
<rect width="33.1096" height="33.1096" fill="white" transform="translate(34 33.1003) rotate(-180)"/>
</clipPath>
</defs>
</svg>
